<?xml version="1.0" encoding="UTF-8"?>
<!DOCTYPE svg PUBLIC "-//W3C//DTD SVG 1.1//EN" "http://www.w3.org/Graphics/SVG/1.1/DTD/svg11.dtd">
<!-- Creator: CorelDRAW -->
<svg xmlns="http://www.w3.org/2000/svg" xml:space="preserve" width="300.2mm" height="100.2mm" version="1.1" style="shape-rendering:geometricPrecision; text-rendering:geometricPrecision; image-rendering:optimizeQuality; fill-rule:evenodd; clip-rule:evenodd"
viewBox="0 0 3977.18 1327.49"
 xmlns:xlink="http://www.w3.org/1999/xlink"
 xmlns:xodm="http://www.corel.com/coreldraw/odm/2003">
 <defs>
  <style type="text/css">
   <![CDATA[
    .str0 {stroke:#332C2B;stroke-width:2.65;stroke-miterlimit:22.9256}
    .fil0 {fill:#FEFEFE}
    .fil1 {fill:#332C2B}
    .fil2 {fill:#332C2B;fill-rule:nonzero}
   ]]>
  </style>
 </defs>
 <g id="圖層_x0020_1">
  <metadata id="CorelCorpID_0Corel-Layer"/>
  <rect class="fil0 str0" x="1.32" y="1.32" width="3974.53" height="1324.84"/>
  <g id="_2500685275536">
   <path class="fil1" d="M482.16 603.19c0,-4.44 -0.43,-11.85 0.13,-15.93 0.63,-4.57 -0.06,-10.21 0.36,-15.24 0.45,-5.47 0.7,-8.71 2.44,-13.61 2.62,-7.39 6.11,-14.55 11.63,-20.01l8.02 -7.57c5.63,-4.64 14.37,-8.92 21.51,-10.14 5.15,-0.87 24.1,-1.43 30.21,-1.43l78.88 0c5.44,0 9.46,-0.46 15.13,-0.46 21.09,0 41.39,0.46 62.83,0.46 8.76,0 54.31,-0.48 62.18,0.65 2.5,0.36 4.87,0.49 7.26,0.99 9.58,1.99 16.18,6.75 23.39,12.38 2.9,2.27 3.27,3.05 5.66,5.8 1.22,1.4 2.41,2.72 3.51,4.29 4.17,5.97 7.91,13.61 9.24,22.4 0.81,5.32 0.22,9.44 0.68,14.92 0.39,4.73 0.43,9.77 0.43,15.16l0 189.86c0,9.56 0.07,25.48 -1.86,34.37 -1.09,5.01 -4.73,12.62 -7.52,16.79 -0.76,1.14 -1.69,2.47 -2.48,3.48 -0.85,1.09 -1.74,2.27 -2.7,3.27 -16.13,16.75 -28.44,18.68 -53.32,18.68 -15.9,0 -30.98,0.46 -47.24,0.46l-112.36 0c-17.66,0 -33.95,-0.46 -51.36,-0.46 -7.78,0 -18.16,-0.18 -23.97,-2.16 -15.41,-5.27 -27.75,-14.74 -35,-29.67 -1.24,-2.56 -2.82,-6.36 -3.57,-9.27 -1.76,-6.82 -1.67,-16.05 -1.66,-24.48 0.01,-4.69 -0.46,-7.63 -0.46,-12.38l0 -181.14zm-153.63 27.52c0,3.69 2.93,6.86 4.93,8.83 1.27,1.25 2.18,2.2 3.42,3.46 1.49,1.52 2.07,1.9 4.92,1.95 26.03,0.48 55.78,-0.02 82.11,-0.02 16.39,0 16.15,-1.95 16.06,4.58 -0.41,29.5 -0.01,59.02 -0.01,88.52 -5.15,1.2 -70.53,0.48 -81.63,0.46 -6.2,-0.01 -22.03,-0.24 -26.03,4.7 -3.38,4.18 -4.87,10.62 -2.11,15.18 1.61,2.65 2.56,3.39 4.63,5.46 2.53,2.53 2.48,3.62 6.51,3.58l91.74 -0.02c5.61,-0.01 6.02,-1.43 6.7,3.85 0.83,6.45 0.18,13.48 0.18,20l0.46 9.63c0.36,6.68 -0.37,13.96 -0.01,20.64 0.11,2.04 0.45,2.2 0.48,4.57 0.06,4.83 -0.52,10.31 0.1,15.03 0.91,6.87 0.94,11.32 3.34,17.29 4,9.94 9.44,19.14 17.13,26.44 8.22,7.81 19.07,14.95 30.21,17.95 12.55,3.37 33.91,3.57 47.34,3.57l30.73 0c3.74,0 8.23,-0.99 8.72,1.37 0.88,4.24 -1.14,89.95 1.64,100.63 0.74,2.82 2.44,4.17 4.44,5.65 8.25,6.12 13.08,3.65 19.94,-3.2 4.93,-4.93 3.33,-4.42 3.33,-12.27l0 -85.76c-0,-2.1 -0.83,-6.42 1.38,-6.42l90.8 0c2.24,0 1.38,4.74 1.38,6.88l0 86.22c-0,8.53 -0.74,7.26 3.78,11.81 1.73,1.74 6.58,6.08 9.52,6.08 5.71,0 9.94,-0.97 13.01,-6.26 1.8,-3.11 2.62,-7.75 2.59,-12.54 -0.03,-5.42 0.45,-9.47 0.45,-15.14l0 -76.59c6.71,-1.56 17.43,-0.07 24.37,-0.85 7.59,-0.85 17.5,0.72 25.09,-0.13 3.8,-0.43 7.99,-0.39 12.45,-0.39l11.92 -0.46c11.69,-0.56 19.41,-3.24 29.04,-9.02 14.38,-8.63 22.08,-18.86 29.2,-33.63 1.31,-2.72 2.66,-5.98 3.49,-9.35l2 -10.39c1.12,-15.76 0.94,-32.57 0.94,-49.51 0,-3.82 -0.56,-23.28 0.41,-24.81 0.87,-1.37 3.35,-0.88 5.55,-0.87l69.25 0c5.05,0 25.89,0.14 29.38,-2.26 1.04,-0.71 2.18,-1.89 3.05,-2.91 6.58,-7.78 4.01,-13.64 -2.28,-19.94 -4.9,-4.9 -3.12,-3.78 -12.27,-3.78l-87.14 0c-2.57,0.01 -5.96,0.67 -5.96,-1.84l0 -90.34c0,-2.5 3.37,-1.37 5.96,-1.37l87.6 -0.01c7.32,0 7.41,0.3 11.98,-4.07 6.92,-6.63 8.43,-12.99 0.98,-20.35 -2.38,-2.35 -3.56,-4.93 -7.42,-4.96l-88.08 0.03c-11.75,0 -10.39,2.69 -10.53,-8.27 -0.03,-2.6 -0.49,-3.17 -0.49,-5.93 -0.01,-4.13 0.02,-8.27 0.02,-12.4 0,-6.09 -0.35,-43.07 -0.98,-49.01 -0.17,-1.6 -0.66,-3.89 -0.81,-5.61 -0.46,-5.19 -2.22,-9.65 -4.47,-14.33 -7.47,-15.51 -15.78,-24.21 -29.99,-32.84 -7.41,-4.5 -19.22,-8.84 -28.41,-9.19 -7.9,-0.31 -15.19,-0.92 -23.85,-0.92 -6.8,0 -46.9,0.8 -49.53,-0.46 -1.42,-1.42 -0.48,-82.03 -0.46,-94.93 0,-3.1 0.5,-5.42 -1.02,-7.23 -2.14,-2.57 -5.28,-5.65 -8.29,-7.3 -1.78,-0.98 -3.39,-1.71 -6.28,-1.53 -4.02,0.26 -8.33,2.51 -10.44,5.63 -4.05,6 -1.93,21.16 -3.05,28.59 -0.9,5.94 -0.29,57.79 -0.26,70.82 0,2.1 0.83,6.42 -1.38,6.42l-90.34 0c-2.66,0 -1.84,-4.3 -1.83,-6.88l0.02 -91.28c0.03,-3.95 -0.36,-3.81 -2.42,-5.83 -1.43,-1.4 -2.66,-2.84 -4.15,-4.1 -7.25,-6.16 -12.42,-3.49 -18.48,2.35 -3.26,3.14 -4.35,4.48 -4.32,9.9 0.18,30.27 -0.41,60.55 0.01,90.81 0.06,4.5 0.84,4.69 -3.65,4.6 -3.4,-0.07 -5.09,0.37 -7.81,0.45 -5.54,0.17 -11.41,-0.01 -16.98,-0.01 -5.9,0 -10.63,0.47 -16.05,0.46 -6.06,-0.01 -26.21,-0.06 -32.24,0.78 -5.25,0.73 -8.71,0.94 -13.62,2.89l-11.16 5.35c-2.84,1.42 -7.56,4.68 -9.81,6.7 -5.95,5.33 -11.6,10.79 -15.74,17.74l-5.61 10.9c-1.71,3.93 -2.97,7.87 -3.74,12.77 -1.27,8.11 -1.51,15.15 -1.61,23.15 -0.03,2.79 -0.49,4.45 -0.48,7.78l0 49.53c-5.64,1.31 -24.17,0.46 -31.64,0.46l-63.29 0c-2.78,-0 -5.75,-0.44 -7.45,0.81 -0.85,0.63 -3.07,2.98 -3.91,3.88 -2.89,3.13 -5.15,5.97 -5.15,10.44z"/>
   <path class="fil1" d="M511.51 630.24c0,40.41 0.46,79.36 0.46,119.69l0.44 44.5c-0.02,3.95 0.88,4.32 2.71,8.29 4.91,10.63 10.46,18.37 21.08,23.86 1.12,0.58 1.62,0.73 2.74,1.39 1.92,1.15 8.54,4.5 10.63,4.5l209.58 0c2.06,0 15.54,-7.48 18.15,-9.37 5.13,-3.71 10.21,-9.69 13.04,-15.4 1.05,-2.11 1.9,-3.84 2.98,-6.19 0.96,-2.07 2.51,-4.51 2.51,-7.12l0 -207.29c0,-2.76 -2.4,-6.63 -3.52,-8.87l-5.63 -9.97c-0.6,-0.93 -0.51,-0.97 -1.27,-1.94l-1.26 -1.49c-5.65,-6.66 -9.68,-8.29 -16.83,-12.06 -2.04,-1.07 -6.56,-3.54 -9.11,-3.73 -7.44,-0.57 -17.49,-0.01 -25.22,-0.01 -33.78,0 -67.57,-0 -101.35,0 -4.55,0 -7.9,-0.49 -11.92,-0.47l-56.43 0.45 -17.22 1.58c-2.18,0.57 -7.29,2.81 -8.99,3.85 -1.37,0.84 -2.42,1.27 -3.77,2.19 -7.6,5.19 -10.47,8.9 -15.4,16.24 -1.57,2.33 -3.16,6.08 -3.86,8.98 -1.7,7.1 -1.62,10.54 -1.63,17.18 -0,2.76 -0.46,3.33 -0.49,5.93 -0.11,8.87 -0.44,16.35 -0.44,25.24z"/>
  </g>
  <path class="fil1" d="M1457.18 580.81c0,-1.12 0.08,-2.18 0.33,-3.05 0.63,-2.24 3.47,-1.34 8.8,-1.34 138.75,0 277.48,0 416.23,0 0.39,0.82 0.68,1.48 0.68,2.7l0 237.85c0,1.16 -0.25,1.31 -0.34,2.36 -0.76,0.18 -0.78,0.34 -1.69,0.34l-422.31 0c-1.6,0 -1.69,-2.7 -1.69,-4.39l0 -234.47zm105.83 158.71l231.15 0c6.17,0 11.23,5.05 11.23,11.23l0 0c0,6.18 -5.05,11.23 -11.23,11.23l-231.15 0c-6.18,0 -11.23,-5.05 -11.23,-11.23l0 0c0,-6.18 5.05,-11.23 11.23,-11.23zm0 -50.19l231.15 0c6.17,0 11.23,5.05 11.23,11.23l0 0c0,6.18 -5.05,11.23 -11.23,11.23l-231.15 0c-6.18,0 -11.23,-5.05 -11.23,-11.23l0 0c0,-6.18 5.05,-11.23 11.23,-11.23zm-212.59 59.73c0,-1.38 1.82,-1.49 3.35,-1.35l9.05 0.44c1.51,0.33 1.79,1.26 1.79,2.94l0 51.69c0,0.81 -0.55,0.99 -1.01,1.69l-11.53 -0.64c-1.33,-0.27 -1.65,-0.56 -1.65,-2.07l0 -52.7zm212.59 -101.34l231.15 0c6.17,0 11.23,5.05 11.23,11.23l0 0c0,6.18 -5.05,11.23 -11.23,11.23l-231.15 0c-6.18,0 -11.23,-5.05 -11.23,-11.23l0 0c0,-6.18 5.05,-11.23 11.23,-11.23zm-302.8 127.69c0,-0.6 0.66,-3.93 0.87,-4.88 0.29,-1.35 0.42,-1.29 0.81,-2.23 1.02,-2.5 0.4,-2.22 2.9,-5.55 0.95,-1.27 1.69,-1.89 2.77,-2.97 3.86,-3.89 6.26,-3.99 9.19,-5.33 3.04,-1.4 10.54,-1.12 12.52,-0.33 0.99,0.4 0.83,0.42 2.22,0.82 4.84,1.39 7.52,4.95 9.85,7.38 7.59,7.87 7.76,27.12 -7.8,34.94 -6.39,3.21 -12.43,2.93 -18.94,0.92 -3.18,-0.98 -9.14,-6.28 -10.79,-9.14 -0.8,-1.39 -1.3,-2.47 -1.87,-3.88 -0.63,-1.59 -1.08,-2.62 -1.31,-4.43 -0.24,-1.91 -0.43,-3.39 -0.43,-5.32zm215.89 117.57c-29.84,0 -61.54,0.43 -90.9,0.02 -4.03,-0.06 -3.02,-2.4 -3.02,-10.16l0 -168.59c0,-6.17 1.12,-7.48 -5.4,-7.44l-64.87 0c-7.21,0 -47.78,0.49 -51.35,-0.34 -1.04,-4.47 -0.34,-19.31 -0.34,-26.01l-0.02 -23.67c0.07,-2.39 0.26,-1.05 0.7,-2.68l120.28 -0.34c0.49,-0.73 1.01,-1.12 1.01,-2.36l0 -55.75c0,-0.53 -0.54,-1.25 -0.87,-1.49 -0.35,-0.26 -1.3,-0.48 -1.83,-0.52 -1.4,-0.12 -3.28,-0.01 -4.73,-0.01l-112.15 -0.02c-3.18,-0.42 -2.39,-3.24 -2.39,-6.74l0 -37.5c0,-10.2 -1.72,-8.79 9.12,-8.79 34.24,0 68.47,0 102.71,0 2.96,0 8.32,0.6 9.57,-0.9 1.65,-1.97 -0.55,-30.03 0.9,-36.26 3.29,-0.77 5.87,-0.34 8.79,-0.34l86.49 0c2.01,0 3.46,-0.3 5.07,-0.68 0.92,-3.93 0.55,-1.36 0.58,-4.68l-0.2 -4.78c0,-1.07 0.3,-1.74 0.3,-3.38l-0.17 -32.43c-0,-1.63 1.5,-5.93 -3.87,-6.1 -8.26,-0.26 -51.71,0.3 -52.65,-0.06l-1.09 -0.94 0.01 -28.05c-0.04,-0.53 -0.06,-0.45 -0.15,-0.86 -0.34,-1.46 -1.65,-1.83 -3.24,-1.83l-122.98 0c-1.22,0 -2.72,0.33 -3.2,1.19 -0.94,1.65 -0.51,21.84 -0.51,25.16 0,2.41 0.83,4.74 -1.4,5.36 -2.25,0.62 -3.84,0.05 -6.37,0.05l-69.26 0c-1.09,0 -1.69,1.23 -1.69,2.37l0 507.45c0,1.2 0.16,2.7 1.35,2.7l262.51 0c2.29,0 2.7,-1.78 2.7,-4.05l0 -60.81c0,-6.9 -1.71,-5.74 -7.43,-5.74zm-73.65 -21.28c0,2.67 0.61,3.09 3.36,3.06 2.03,-0.03 4.07,-0.02 6.1,-0.02l133.79 0c6.92,0 44.82,-0.47 48.31,0.34 0.09,1.06 0.34,1.2 0.34,2.36l-0.15 6.31c0,0.01 0.08,0.81 0.08,0.82 0.06,0.7 0.07,1.28 0.07,1.99l-0.01 60.82c-2.23,1.07 -67.96,0.34 -76.69,0.34 -0.73,1.09 -0.62,0.34 -0.99,1.72 -0.06,0.21 -0.3,1.97 -0.3,2.02 -0.02,1.04 0.28,2.67 0.28,4.36 -0.01,2.14 -0.91,7.77 1.35,7.77l297.31 0c1.92,0 2.36,-1.52 2.36,-3.38 0,-13.67 1.03,-12.5 -7.09,-12.5 -3.38,0 -6.76,0 -10.14,0 -8.21,0 -57.36,0.54 -61.15,-0.34 0.13,-1.52 0.35,-2.34 0.34,-4.39l-0 -32.1c0,-9.7 -0.49,-25.91 0.34,-35.81 1.99,-0.17 3.58,-0.34 6.08,-0.34l187.17 0c1.86,0.01 4.73,0.56 4.73,-1.35l0 -350.01c0,-2.75 -2.44,-2.03 -6.42,-2.03l-528.06 0c-0.51,0.97 -1.01,1.89 -1.01,3.38l0 346.97z"/>
  <path class="fil1" d="M2468.59 986.41l-266.15 0c-0.65,0 -0.84,-0.19 -0.84,-0.84 0,-4.42 -0.39,-22.68 0.28,-25.58 1.86,-0.49 0.2,-0.28 2.09,-0.12 1.02,0.08 0.72,-0.03 1.34,-0.06 1.04,-0.03 0.5,0.05 1.12,0.08 1.61,0.06 0.06,-0.19 1.35,-0.19l257.5 0.19c1.61,0.06 0.06,-0.19 1.35,-0.19 3.09,0 2.48,-0.14 2.75,0.6l0.06 11.77c0.07,1.36 0.45,1.92 0.25,3.61l-0.24 7.64c0.01,1.34 0.41,3.09 -0.85,3.09zm-213.6 -120.29c0,4.9 -0.29,26.3 0.27,29.52 0.32,1.83 1.16,3.28 2.13,4.61 3.7,5.06 7.85,6.36 14.21,5.51 3.16,-0.42 7.03,-3.33 8.44,-6.17 0.94,-1.87 0.76,-0.74 1.21,-2.44 0.57,-2.15 1,-3.69 1,-6.31 0,-4.65 0.55,-24.52 -0.53,-27.58 -0.2,-0.57 -0.31,-0.68 -0.46,-1.23 -0.64,-2.42 -1.12,-3.73 -3.15,-5.84 -1.98,-2.07 -2.53,-1.6 -4.22,-2.8 -1.54,-1.1 -0.21,-0.15 -2.72,-0.65 -4.15,-0.82 -1.27,-1.06 -5.72,-0.06 -2.39,0.54 -2.38,0.34 -4.72,2.02 -0.95,0.68 -1.04,0.66 -1.88,1.49 -2.68,2.68 -3.86,5.82 -3.86,9.91zm53.4 2.53c0,1.03 0.16,0.59 0.19,1.19l-0.08 15.17c-0.03,0.99 0.08,0.83 0.01,2.02l0.16 3.26c0,1.72 -0.35,1.31 -0.1,2.89 0.17,1.07 0.26,2.13 0.49,3.18l2.09 4.09c0.2,0.28 0.25,0.4 0.45,0.68 0.66,0.93 1.07,1.13 1.88,1.77l1.36 1.17c0.35,0.27 0.09,0.13 0.69,0.43 0.52,0.26 0.6,0.23 1.16,0.53 1.45,0.76 4.32,1.25 5.99,1.09l4.55 -0.92c1.65,-0.81 3.13,-1.58 4.42,-2.88 1.69,-1.71 1.95,-2.4 2.97,-4.33l1.31 -6 0 -25.01c0,-1.29 -0.67,-4.97 -1.04,-5.99 -0.56,-1.53 -2.01,-3.68 -3.28,-4.87 -0.3,-0.28 -0.17,-0.17 -0.44,-0.4 -1.79,-1.57 -0.99,-0.9 -2.67,-1.83l-0.52 -0.33c-0.97,-0.59 -4.7,-1.48 -5.82,-1.48 -1.23,0 -4.97,0.93 -5.99,1.6l-1.29 0.67c-1.81,1.01 -3.63,3.12 -4.59,4.96l-1.17 2.76c-0.24,1.14 -0.35,2.28 -0.53,3.42l-0.18 3.17zm-73.07 -42.72l7.31 0c1.37,0 0.72,-0.54 2.1,-0.4 1.24,0.12 1.23,0.38 2.67,0.41l18.57 -0.02c1.94,0 3.34,0.29 5.61,0.29l85.44 0c0.87,0 1.95,0.06 2.8,-0.02 4.76,-0.39 3.93,0.02 8.73,0.02 1.85,0 2.82,-0.24 4.22,-0.29 1.43,-0.06 2.63,0.3 4.49,0.3l23.33 0c1.97,0.01 2.81,-0.27 4.48,-0.29 12.42,-0.15 24.96,0.01 37.39,0.01 0.15,0.63 0.28,0.65 0.28,1.41l0 104.27c0,1.4 -4.38,0.84 -7.03,0.84 -6.08,0 -49.24,-0.18 -51.32,0.13l-30.18 -0.13c-1.11,0 -1.28,0.2 -1.97,0.2 -0.68,0 -0.86,-0.2 -1.97,-0.2l-119.18 0.01c-3.13,0.05 -2.52,0.9 -2.52,-6.47l0 -90.22c0.01,-1.89 -0.26,-2.69 -0.3,-4.21 -0.04,-1.47 0.2,-2.56 0.27,-4.24 0.08,-2.06 1.01,-1.32 3.14,-1.36 1.89,-0.04 1.31,-0.56 2.53,-0.3 0.75,0.16 -0.34,0.28 1.11,0.28zm153.45 -27.82c-2,0.42 -38.73,-0.41 -41.45,0.18 -2.11,0.46 -0.73,0.03 -2.67,-0.17 -3.01,-0.31 -40.77,-0.01 -45.81,-0.01 -4.45,0 -11.01,0.4 -15.19,0.02 -1.62,-0.15 -1.42,-0.83 -1.4,-2.53l-0.07 -17.1c-0.58,-2.89 -0.13,-0.62 0.08,-2.87 0.05,-0.56 0.01,-1.38 0.01,-1.96 -0.01,-2.74 -0.1,-8.57 0.59,-10.65 0.46,-1.4 1.37,-7.12 2.36,-9.16 0.34,-0.71 0.38,-0.5 0.63,-1.34 0.75,-2.62 0.29,-0.85 1.08,-2.57 1.63,-3.58 2.71,-5.48 4.85,-8.64 0.03,-0.05 0.07,-0.12 0.11,-0.17 0.03,-0.05 0.07,-0.12 0.11,-0.17l3.93 -4.78c0.44,-0.49 0.47,-0.59 0.89,-1.07 0.61,-0.69 1.28,-1.33 1.96,-1.98l1.65 -1.44c1.69,-1.59 1.7,-1.12 2.9,-2.16 0.06,-0.05 0.23,-0.22 0.29,-0.27l6.23 -4.17c1.99,-1.35 1.03,-0.52 2.43,-1.22 3.33,-1.68 3.18,-1.34 5.35,-2.24 1.61,-0.67 0.4,-0.46 2.98,-0.95 1.56,-0.29 1.54,-0.54 2.81,-0.85l6.45 -1.13 11.82 -0.21c0.91,0.17 1.33,0.6 4,1.03 4.52,0.72 2.32,0.63 5.51,1.24 1.72,0.33 1.18,0.48 2.42,0.96 1.14,0.44 3.52,1.08 4.87,1.88 2.5,1.49 3.67,1.91 6.95,4.01l3.45 2.45c2.3,1.58 5.58,5.39 7.28,7.05l1.21 1.6c0.4,0.58 1.04,1.32 1.5,1.88 3.16,3.83 6.41,11.18 7.76,15.84 1.51,5.17 0.42,1 1.07,5.67 0.17,1.21 0.54,1.42 0.86,2.52l0.49 13c0,3.93 0.38,17.69 -0.28,20.52zm360.87 -117.76c0,-0.51 0.53,-1.56 0.73,-2.08 0.64,-1.67 0.36,-2.39 1.05,-4.01l3.55 -12.19c1.06,-2.5 0.07,-4.67 3.16,-2.86 0.78,0.46 0.88,0.43 1.7,0.83 0.78,0.38 0.85,0.53 1.65,0.88l3.33 1.73c-0.64,1.22 -2.7,3.56 -3.65,4.78l-3.97 5.03c-0.04,0.04 -0.1,0.1 -0.13,0.15 -0.04,0.05 -0.09,0.1 -0.13,0.15l-7.01 8.73c-0.19,-0.8 -0.28,-0.48 -0.28,-1.12zm26.98 -43c-1.44,0 -1.7,-0.43 -2.58,-0.79 -3.64,-1.51 -0.32,0.45 -4.13,-2.33 -1.71,-1.25 -3.42,-3.55 -3.9,-5.65 -0.44,-1.93 -0.91,-3.56 -0.73,-5.35 0.34,-3.33 1.92,-6.79 4.27,-8.68 2.22,-1.79 6.31,-3.61 9.04,-3.61 0.05,0 4.87,1.1 5.02,1.17 0.68,0.31 0.38,0.28 1.01,0.67 2.15,1.32 1.6,0.69 4.02,3.28 1.1,1.18 1.63,2.53 2.17,4.02 0.32,0.91 0.71,1.12 0.71,2.1 0,2.91 0.28,3.79 -0.6,6.14 -0.95,2.52 -1.37,3.11 -3.27,5.16 -0.69,0.75 -2.13,2.12 -3.08,2.54 -3.27,1.44 -4.2,1.33 -7.95,1.33zm-374.08 89.09c-0.71,-0.48 -1.32,-1.02 -1.85,-1.81l-4.62 -5.78 -8.99 -8.71c-0.52,-0.47 -0.45,-0.51 -0.83,-0.85l-2.66 -2.12c-0.05,-0.04 -0.11,-0.09 -0.16,-0.12l-1.17 -0.8c-1.73,-1.31 -6.96,-4.89 -8.53,-5.52l-4.72 -2.3c-2.09,-0.82 -4.19,-1.99 -6.35,-2.37 -1.46,-0.26 -1.1,-0.67 -2.56,-1.09 -0.99,-0.28 -1.61,-0.36 -2.62,-0.75l-5.6 -1.42c-2.01,-0.48 -4.13,-0.41 -6.09,-0.94 -2.13,-0.57 -3.75,-0.53 -6.5,-0.53 -10.64,0 -11.45,0.86 -9.25,-2.5l1.36 -2.29c0.29,-0.44 0.33,-0.55 0.66,-1.02l8.82 -13.94c0.61,-0.96 0.82,-1.18 1.41,-2.24 0.38,-0.69 0.84,-1.53 1.25,-2.12l0.36 -0.48c0.03,-0.05 0.09,-0.11 0.12,-0.16 0.24,-0.35 0.16,-0.24 0.32,-0.52l3.41 -5.3c0.27,-0.39 0.36,-0.59 0.65,-1.03l6.09 -9.64c0.3,-0.46 0.43,-0.77 0.73,-1.24 0.53,-0.82 0.18,-0.16 0.71,-0.98 0.27,-0.41 0.34,-0.63 0.62,-1.07l6.12 -9.62c0.58,-0.74 0.95,-1.36 1.43,-2.22 0.55,-1.01 0.78,-1.27 1.3,-2.07l15.63 -24.84c1.24,-2.25 2.95,-4.23 4.19,-6.49 2.2,-4 5.15,-7.73 7.38,-11.73l11.34 -17.89c0.19,-0.3 0.12,-0.22 0.31,-0.53l9.53 -14.92c0.27,-0.42 0.4,-0.53 0.67,-1.02 2.05,-3.73 4.53,-7.27 6.81,-10.89 0.41,-0.65 0.23,-0.47 0.57,-1.12 0.4,-0.76 0.26,-0.42 0.7,-0.98l7.49 -11.9c0.89,-1.81 2.43,-3.5 3.41,-5.3l5.5 -8.55c0.34,-0.52 0.42,-0.8 0.7,-1.27l3.33 -5.39c1,-2.03 2.55,-3.88 3.77,-5.78l2.4 -3.78c0.33,-0.48 0.32,-0.39 0.69,-0.99l6.1 -9.92c0.3,-0.49 0.35,-0.46 0.7,-0.99 0.3,-0.45 0.38,-0.64 0.66,-1.03l3.41 -5.31c0.41,0.3 0.3,0.27 0.59,0.54l3.57 3.46c1.47,1.3 6.1,5.21 7.67,6.1 2.93,1.66 5.77,3.51 8.86,4.92 0.8,0.36 0.69,0.43 1.26,0.71 1.84,0.9 4,1.24 5.72,2.14 1.15,0.6 3.19,0.99 4.51,1.39 1.12,0.34 2.13,0.41 3.21,0.73 2.36,0.7 6.21,0.41 6.21,1.66 0,1.12 -2.06,5.41 -2.77,6.79l-10.77 23.8c-0.86,1.7 -1.29,3.42 -2.22,5.09l-8.58 18.96c-0.21,0.49 -0.25,0.77 -0.45,1.23l-4.05 8.88c-0.4,0.8 -0.17,0.42 -0.46,1.23 -0.33,0.93 -0.27,0.57 -0.7,1.27l-1.62 3.71c-0.41,1.08 -0.68,1.1 -1.17,2.49l-12.42 27.49c-0.4,0.79 -0.21,0.58 -0.52,1.45 -0.39,1.13 -0.53,0.76 -0.98,1.83l-5.25 11.89c-2.08,3.64 -4.11,9.77 -6.27,13.69l-11.69 26.53c-0.29,1.22 0.16,0.49 -0.45,1.52 -1.22,2.08 0.03,2.16 -1.89,3.17 0,1.66 -0.14,1.58 -0.82,2.84 -0.32,0.61 -0.1,0.28 -0.31,0.81 -0.34,0.85 -0.02,0.2 -0.48,0.92 -0.54,0.85 -0.01,-0.33 -0.43,0.69 -0.35,0.85 -0.08,0.9 -0.5,1.74l-0.85 1.68c-0.35,1.19 -0.14,0.61 -0.74,1.51 -1.21,1.84 0.21,1.68 -1.77,2.73 0,3.02 -0.34,1.32 -1.01,3.49 -0.44,1.43 -0.89,1.78 -1.28,3.22 -0.39,1.41 -0.42,0.5 -0.92,1.61l-1.01 2.08c-0.03,0.05 -0.08,0.12 -0.1,0.18l-0.18 0.66c-0.33,1.4 -1.4,3.02 -2.1,4.37 -0.33,0.63 -0.32,1.13 -0.58,1.67 -0.31,0.63 -0.46,0.53 -0.85,1.12 -1.64,2.51 -4.2,9.68 -5.94,12.89 -0.24,0.43 -0.16,0.23 -0.33,0.79 -0.35,1.13 0.01,0.57 -0.67,1.58l-2.04 4.42c-0.36,0.71 -0.43,0.68 -0.73,1.51 -0.24,0.66 -0.26,0.89 -0.64,1.61 -1.28,2.43 -2.07,4.96 -3.25,7.42zm164.94 -255.23c0.28,-0.43 0.3,-0.33 0.58,-0.82l2.63 -5.24c0.32,-0.79 1.34,-2.87 1.96,-3.38l1.9 0.78c0.05,0.04 0.11,0.09 0.16,0.12 0.05,0.03 0.11,0.08 0.16,0.12 0.05,0.03 0.12,0.08 0.17,0.11l11.97 9.39c1.05,0.7 1.46,1.41 2.52,2.26l16.1 12.84c0.51,0.48 0.8,0.75 1.35,1.18 0.68,0.53 0.77,0.67 1.37,1.16l17.71 14.05c0.56,0.43 0.84,0.51 1.34,0.91l16.21 13.02c4.63,3.4 8.89,7.28 13.43,10.74l6.72 5.37c0.04,0.04 0.1,0.1 0.14,0.14l6.09 4.86c0.22,0.19 0.4,0.34 0.61,0.51l10.81 8.58c1.88,1.54 3.49,2.88 5.43,4.4 0.97,0.76 1.75,1.42 2.65,2.13l39.32 31.5c0.58,0.4 0.86,0.27 1.48,0.77 0.75,0.61 0.29,0.61 1.19,1.34l2.53 1.97c0.04,0.04 0.1,0.1 0.14,0.14l6.71 5.38c0.19,0.16 0.25,0.2 0.47,0.37 3.12,2.52 5.46,3.27 4.21,5.02 -0.25,0.35 -0.02,-0.03 -0.4,0.44l-0.24 0.32c-0.66,0.94 -0.81,1.42 -1.96,1.01 -1.54,-0.56 -2.51,-1.49 -3.83,-2.33l-7.26 -4.55c-2.34,-1.67 -5.12,-2.94 -7.44,-4.64l-10.24 -6.35c-0.57,-0.34 -0.28,-0.13 -0.87,-0.54l-18.14 -11.37c-0.44,-0.27 -0.19,-0.1 -0.67,-0.45 -0.54,-0.39 0.06,-0.06 -0.65,-0.47l-9.33 -5.84c-0.05,-0.03 -0.12,-0.08 -0.17,-0.11l-8.2 -5.01c-0.74,-0.5 -0.74,-0.56 -1.53,-1l-6.55 -4.13c-0.56,-0.35 -0.19,-0.1 -0.73,-0.4 -0.34,-0.18 -0.11,-0.01 -0.54,-0.3l-3.97 -2.49c-0.39,-0.24 -0.27,-0.2 -0.67,-0.46l-14.68 -9.21c-0.05,-0.03 -0.12,-0.08 -0.17,-0.11l-10.79 -6.63c-0.52,-0.32 -0.73,-0.52 -1.34,-0.91l-19.84 -12.48c-0.48,-0.29 -0.21,-0.11 -0.75,-0.37l-13.12 -8.24c-0.84,-0.44 -0.66,-0.5 -1.35,-0.9 -0.41,-0.24 -0.54,-0.23 -0.95,-0.45 -0.6,-0.33 -0.22,-0.14 -0.68,-0.45l-2.98 -1.8c-0.63,-0.36 -0.7,-0.57 -1.29,-0.96l-26.32 -16.39c-1.45,-0.65 -2.46,-1.6 -3.78,-2.4 -0.55,-0.34 -0.12,-0.02 -0.7,-0.43l-7.12 -4.4c0.12,-1.41 0.85,-1.69 1.65,-2.57 1.8,-1.98 3.9,-3.89 5.37,-6.16 0.5,-0.78 0.43,-0.72 1.05,-1.48l3.14 -4.73zm-96.68 -42.44c0.65,-3.99 2.01,-8.2 4.1,-11.64 1.44,-2.38 2.72,-4.56 4.58,-6.66 2.08,-2.34 4.47,-4.67 7.05,-6.44l8.71 -4.78c2.13,-1.09 4.64,-1.54 7.04,-1.96 1.24,-0.21 2.46,-0.81 3.69,-0.81 4.48,0 7.56,-0.3 11.85,0.79 1.07,0.27 1.02,0.2 2.19,0.34 1.42,0.17 2.15,0.79 3.64,1.13 1.04,0.24 1.57,0.77 2.55,1.1l2.3 1.07c1.01,0.48 0.78,0.13 1.7,0.83l5.55 4.01c0.62,0.53 0.51,0.58 1.13,1.12l3.75 3.84c0.04,0.04 0.09,0.11 0.13,0.15l2.32 3.02c2.15,3.19 2.56,4.83 4.15,7.93l0.88 2.49c0.9,3.56 1.12,3.98 1.68,7.88l0.28 6.99c-0.03,0.86 -0.26,1.25 -0.42,2.11 -0.82,4.23 -0.37,4 -1.8,8.31l-5.22 9.96c-0.56,0.66 -0.54,0.83 -1.05,1.48 -3.99,5.17 -4.53,4.68 -8.31,7.99l-0.29 0.28c-0.04,0.04 -0.1,0.1 -0.14,0.14 -0.04,0.04 -0.1,0.1 -0.15,0.13 -1.75,1.46 -4.49,2.25 -6.45,3.38 -0.9,0.52 -0.88,0.31 -1.93,0.6 -1.13,0.32 -0.78,0.52 -1.67,0.86 -0.9,0.34 -1.24,0.09 -2.22,0.31 -1.3,0.29 -0.78,0.46 -1.72,0.81 -0.79,0.3 -7.59,1.04 -8.79,1.04l-8.83 -1.01 -7.1 -2.45c-0.33,-0.16 -0.69,-0.41 -0.9,-0.5 -2.61,-1.23 -6.63,-3.57 -8.86,-5.47l-0.69 -0.71c-0.04,-0.04 -0.1,-0.1 -0.14,-0.14l-2.53 -2.53c-0.04,-0.04 -0.1,-0.1 -0.14,-0.14l-3.53 -4.34 -5.69 -12.02c-0.61,-1.42 -0.48,-2.33 -0.82,-3.96 -0.84,-4 -0.68,-6.68 -0.68,-10.85l0.8 -3.69zm65.65 76.92l10.65 6.49c0.82,0.51 0.71,0.6 1.43,1.1l9.48 5.98c0.32,0.19 0.23,0.12 0.53,0.31l1.2 0.77c0.85,0.47 0.87,0.53 1.55,0.98l8.5 5.28c0.05,0.03 0.12,0.08 0.17,0.11 0.05,0.03 0.12,0.08 0.17,0.12l18.71 11.64c0.05,0.03 0.11,0.08 0.16,0.12 0.05,0.03 0.11,0.09 0.16,0.12l3.98 2.49c0.6,0.4 0.93,0.52 1.57,0.96l6.02 3.82c0.07,0.05 0.27,0.17 0.34,0.22l12.63 7.88c0.47,0.3 0.42,0.24 0.88,0.52l2.47 1.47c0.52,0.38 0.22,0.25 0.83,0.57 0.3,0.16 0.39,0.15 0.76,0.36l7.57 4.79c0.05,0.03 0.11,0.09 0.16,0.12l3.25 2.09c0.72,0.39 0.87,0.55 1.56,0.97l2.04 1.33c0.05,0.03 0.13,0.07 0.18,0.1l23.04 14.34c0.05,0.03 0.11,0.08 0.16,0.12l26.94 16.9c0.92,0.46 0.72,0.39 1.57,0.96l5.66 3.62c0.43,0.21 0.38,0.12 0.79,0.33l14.44 8.89c0.68,0.61 0.45,0.64 1.37,1.16l11.18 7.09c0.47,0.28 0.54,0.26 0.94,0.46l14.13 8.92c0.25,0.15 0.53,0.25 0.75,0.38 1.95,1.17 0.37,3.32 -0.04,5.14l-1.53 6.06c-0.33,0.92 -0.31,0.42 -0.64,1.33l-1.19 4.43c-0.32,1.17 -0.32,1.9 -0.75,2.9 -0.3,0.7 -0.34,0.56 -0.52,1.45l-2.12 7.44c-0.36,0.9 -0.39,2.02 -0.72,2.93 -0.19,0.51 -0.38,0.93 -0.49,1.48 -0.55,2.71 -0.94,2.74 -1.35,4.27 -0.18,0.66 -0.1,1.03 -0.25,1.72l-1.25 4.37c-0.31,1.29 -0.59,1.22 -0.9,2.75l-1.58 6.01c-0.41,1.22 -0.66,1.13 -0.92,2.73l-4.91 17.57c-0.31,1.03 -0.96,3.8 -1.46,4.44 -0.11,0.14 -0.76,0.7 -0.9,0.79l-2.34 1.31c-0.05,0.03 -0.13,0.07 -0.18,0.1 -0.64,0.38 -0.54,0.36 -1.13,0.83 -2.62,2.06 -4.64,3.59 -6.48,6.45 -0.49,0.76 -0.19,0.47 -0.83,1.14l-0.43 0.41c-0.52,0.48 -0.02,0.08 -0.45,0.4 -9.46,0 -18.93,0.05 -28.39,-0.01 -2.41,-0.01 -4.44,0.25 -6.3,1.01 -2.33,0.95 -4.73,2.34 -6.19,4.49 -0.79,1.16 -1.95,3.48 -2.14,4.89 -0.17,1.3 -0.55,1.54 -0.55,2.83l0 54.52c0,1.46 0.06,0.27 0.36,1.33 0.23,0.83 0.14,0.52 0.21,1.48 0.11,1.57 1.14,3.48 2.03,4.71 2.45,3.38 6.54,5.69 10.89,5.69 2.71,0 4.64,-0.82 7,-2 2.47,-1.23 3.94,-3.38 5.25,-5.72 0.35,-0.63 0.17,-0.23 0.44,-0.68 1.16,-1.96 1.05,-6.93 0.97,-9.38 -0.02,-0.65 0.1,-0.81 0.07,-1.85 -0.02,-0.8 -0.05,-0.34 -0.04,-0.87l-0.03 -11.76c0.11,-3.21 -0.17,-3.7 -0.17,-5.69 0,-1.98 0.45,-4.7 0.24,-7.25 -0.26,-3.16 0.03,-3.34 0.02,-5.68 -0,-1.22 -0.3,-1.26 0.3,-2.53 3.16,-0.74 11.98,-0.28 15.74,-0.28 1.04,0 1.81,1.72 2.33,2.45 1.78,2.5 4.43,5.1 7.07,6.7l3.18 1.59c1.34,0.46 4.22,2.05 6.81,2.19 14.06,0.74 10.1,-1.97 15.75,3.65l9.55 9.84c-0.16,0.31 -0.26,0.61 -0.48,0.93 -1.13,1.64 -3.66,3.72 -5.18,5.22 -0.22,0.22 -0.33,0.32 -0.57,0.56l-0.56 0.57c-0.22,0.22 -0.33,0.32 -0.57,0.56l-1.82 1.83c-0.04,0.04 -0.1,0.1 -0.14,0.14 -0.04,0.04 -0.1,0.1 -0.14,0.14l-5.2 5.2c-0.04,0.04 -0.1,0.1 -0.14,0.14l-17.69 18.57c-0.38,0.67 -0.15,0.18 -0.46,0.66 -1.19,1.85 -1.36,4.96 -1.36,7.36 0,1.4 1.59,5.21 2.41,6.3 0.04,0.05 0.09,0.1 0.13,0.15 2.87,3.46 5.79,5.05 10.26,5.78 3.61,0.59 8.94,-2.16 11.4,-4.88 0.39,-0.44 0.47,-0.71 1,-1.25l3.01 -2.89c1.76,-1.36 5.67,-6.17 8.32,-8.27 1.51,-1.2 4.49,-4.79 6.24,-6.4l6.19 -6.18c0.42,-0.42 0.68,-0.73 1.14,-1.11 0.44,-0.37 0.72,-0.49 1.08,-0.89 0.38,-0.42 0.35,-0.58 0.87,-1.1l11.4 -11.37c0.56,-0.65 1.32,-1.48 1.77,-2.16 0.81,-1.21 2.22,-4.5 2.22,-5.93 0,-3.61 -0.23,-4.96 -1.8,-8.04 -1.06,-2.09 -1.8,-2.72 -3.33,-4.26l-15.18 -15.18c-7.24,-7.24 -7.9,-5.87 -6.69,-11.05 0.92,-3.94 -0.17,-5.95 -0.6,-9.22 -0.26,-2 2.17,-3.98 4.19,-6.58l1.8 -2.41c0.04,-0.04 0.1,-0.1 0.14,-0.14l16.26 -20.56c1.29,-1.88 2.95,-3.43 4.24,-5.32l1.89 -2.33c0.57,-0.7 0.57,-0.94 1.17,-1.64l0.63 -0.78c0.32,-0.45 0.05,-0.16 0.46,-0.66l6.21 -7.85c0.04,-0.04 0.1,-0.1 0.14,-0.15 0.04,-0.04 0.09,-0.1 0.13,-0.15l4.38 -5.46c2.02,-2.36 5.89,-7.91 7.54,-9.6 0.74,-0.76 0.52,-0.55 1.11,-1.42 0.47,-0.7 0.17,-0.25 0.62,-0.78l6.84 -8.33 7.93 -14.27c0.33,-0.96 0.51,-0.92 0.78,-2.03 0.94,-3.81 1.34,-7.69 1.34,-11.6 0,-3.92 -0.48,-6.28 -1.28,-9.96l-1.36 -3.98c-1.09,-2.78 -2.66,-5.35 -4.23,-7.85 -0.27,-0.43 -0.11,-0.27 -0.41,-0.71l-2.58 -3.33c-0.04,-0.04 -0.1,-0.1 -0.14,-0.15l-1.67 -1.7c-2.85,-2.8 -6.34,-5.77 -9.97,-7.45 -0.81,-0.38 -1.09,-0.44 -1.91,-0.9l-12.5 -3.52c-3.59,-0.6 -5.2,0.1 -6.96,0.13 -6.02,0.09 -3.67,1.59 -10.05,-3.63l-67.06 -53.51c-0.19,-0.16 -0.31,-0.29 -0.59,-0.53l-6.56 -5.25c-0.05,-0.04 -0.11,-0.09 -0.16,-0.13l-1.21 -1.04c-0.51,-0.42 -0.78,-0.62 -1.25,-1l-5.1 -4.17c-0.93,-0.79 -1.85,-1.29 -2.77,-2.01 -1.18,-0.92 -3.29,-2.27 -4.11,-3.2 -2.13,-2.4 -10.57,-8.33 -13.82,-11.19l-29.64 -23.76c-0.99,-0.78 -1.72,-1.38 -2.65,-2.13l-42.23 -33.65c-0.5,-0.4 -0.92,-0.75 -1.38,-1.15 -0.06,-0.05 -0.23,-0.22 -0.29,-0.27l-6.28 -4.96c-1.92,-1.51 -3.75,-2.51 -4.08,-5.47 -0.43,-3.87 -0.79,-4.61 -1.49,-8.07 -0.15,-0.73 -0.38,-1.12 -0.64,-1.89 -0.24,-0.72 -0.26,-1.08 -0.46,-1.79l-1.25 -3.53c-0.49,-1.76 -2.86,-6.58 -3.83,-7.97l-6.68 -9.9c-0.86,-1.34 -2.4,-2.62 -3.44,-3.86 -2.22,-2.66 -5.37,-5.25 -8.18,-7.27l-2.22 -1.41c-0.52,-0.38 -0.79,-0.65 -1.25,-1.02 -0.64,-0.52 -0.88,-0.58 -1.51,-1.02 -0.75,-0.52 -0.56,-0.42 -1.4,-0.85l-8.03 -4.05c-2.04,-1.2 -4.59,-1.73 -6.75,-2.52l-5.56 -1.46c-1.55,-0.27 -2.82,-0.15 -4.27,-0.51 -4.22,-1.06 -9.18,-0.9 -13.58,-0.77 -3.13,0.09 -5.28,0.96 -8.41,1.14l-11.04 3.3c-2.27,0.85 -2.34,0.33 -5.19,2.12 -0.64,0.4 -0.12,0.17 -0.74,0.39l-6.92 3.76c-3.75,2.42 -7.34,5.16 -10.49,8.34 -1.66,1.67 -3.11,3.08 -4.55,5.01l-6.47 8.99c-1.19,1.95 -2.89,4.95 -3.68,7l-4.1 12.48c-0.47,1.44 -0.44,2.28 -0.68,4.1 -0.86,6.36 -0.97,7.45 -0.97,13.93 0,1.51 1.07,9.6 1.58,11.07 0.38,1.1 0.67,1.92 0.67,3.26 0,2.03 0.3,1.76 -0.88,3.34l-1.62 2.6c-0.42,0.84 -0.25,0.48 -0.74,1.23l-8.19 12.89c-0.44,0.61 -0.05,0.06 -0.43,0.7l-18.79 29.83c-0.32,0.51 -0.48,0.64 -0.81,1.16 -0.32,0.5 -0.41,0.66 -0.78,1.18l-5.61 9c-0.39,0.68 -0.39,0.56 -0.78,1.19 -0.22,0.37 -0.2,0.38 -0.41,0.71 -0.22,0.35 -0.18,0.24 -0.46,0.67l-4.81 7.56c-0.36,0.65 -0.32,0.65 -0.74,1.23l-15.89 25.15c-0.22,0.36 -0.07,0.17 -0.31,0.53 -1.06,1.57 -2.33,3.25 -3.15,5 -0.62,1.33 -0.21,0.36 -0.95,1.3l-5.48 8.85c-1.15,2.28 -2.82,4.37 -4.2,6.48l-9.19 14.42c-0.16,0.26 -0.26,0.49 -0.4,0.72l-10.4 16.59c-0.34,0.55 -0.48,0.61 -0.81,1.15l-21.74 34.47c-0.29,0.45 -0.56,0.87 -0.89,1.36 -0.45,0.67 -0.39,0.41 -0.79,1.18l-5.63 8.99c-0.37,0.52 -0.46,0.67 -0.79,1.18l-1.58 2.64c-0.36,0.52 -0.41,0.66 -0.78,1.19l-13.62 21.51c-0.58,0.89 -1.07,1.64 -1.67,2.55l-2.16 3.46c-0.03,0.05 -0.07,0.12 -0.11,0.17 -0.03,0.05 -0.08,0.12 -0.11,0.17l-6.09 9.65c-0.04,0.05 -0.09,0.11 -0.12,0.16 -0.03,0.05 -0.08,0.11 -0.12,0.16l-5.75 9.14c-1.97,3.57 -4.28,4.94 -7.12,7.78l-4.95 5.17c-1.92,1.92 -3.45,4.27 -5.15,6.37l-2.91 4.39c-1.41,2.17 -4.04,6.4 -4.76,8.73l-5.59 16.05c-0.32,1.32 -0.23,2.38 -0.5,3.71 -0.26,1.29 -0.56,2.02 -0.81,3.4l-0.43 36.67c-1.82,1.22 -2.2,0.85 -5.06,0.85 -1.97,-0 -3.94,-0 -5.9,-0 -6.57,0 -31.6,-0.75 -34.52,0.89 -3.56,1.99 -5.72,3.89 -7.28,7.62 -0.38,0.91 -0.53,0.9 -0.77,2.04 -0.55,2.53 -0.15,25.56 -0.15,29.36 0,24.06 -0.27,48.22 0.08,72.27l-0.08 21.32c-2.15,1.03 -7.02,0.56 -10.12,0.56 -1.42,0 -4.03,-0.15 -5.31,0.03 -3.81,0.54 -7.27,3.17 -9.22,6.24l-1.42 2.79c-0.65,1.68 -0.91,3.14 -0.91,5.27 0,7.1 -0.5,53.24 0.41,56.36 1.31,4.47 3.02,4.93 3.92,5.92 0.39,0.43 0.36,0.59 0.68,1.01 0.86,1.13 2.45,1.8 3.69,2.21 0.88,0.3 0.5,0.23 1.18,0.51 1.1,0.45 5.28,0.61 6.98,0.61l103.99 0c3.15,0 5.6,-0.28 8.43,-0.29l120.29 0.29c3.16,0 5.6,-0.28 8.43,-0.29 1.8,-0 2.44,0.25 3.92,0.3 5.84,0.17 44.31,0.21 46.54,-0.13 2.79,-0.42 3.43,0.01 6.25,-1.34l2.59 -1.63c0.05,-0.04 0.11,-0.09 0.16,-0.13l1.53 -1.56c0.63,-0.82 0.89,-1.13 1.54,-2.12 0.75,-1.14 1.35,-2.47 1.68,-3.94 0.54,-2.38 0.15,-46.37 0.15,-52.69 0,-1.08 -0.18,-0.9 -0.17,-1.65 0.12,-5.22 0.58,-2.97 -1.01,-7.85 -0.33,-0.99 -0.97,-1.74 -1.63,-2.59 -2.24,-2.88 -4.35,-3.84 -7.62,-5.03 -2.15,-0.78 -9.13,-0.32 -11.77,-0.31l-4.5 -0.28 -0.04 -82.85c-0.21,-2.59 -0.07,-2.33 0,-4.57 0.01,-0.36 -0.04,-0.71 -0.04,-0.88l-0.02 -25.77c0.05,-6.35 0.75,-11.26 -4.6,-16.42 -0.73,-0.7 -1.75,-1.48 -2.64,-1.86 -1.32,-0.56 -1.75,-1 -3.33,-1.17 -7.61,-0.82 -38.24,0.3 -41.54,-0.34 -0.63,-0.12 -0.69,-0.31 -1.48,-0.49l0 -19.39c0,-2.46 -0.29,-4.02 -0.29,-6.18l-0.02 -9.3c0.05,-2.05 0.16,-0.99 0.84,-2.25l1.51 -3.55c1.01,-2.57 2.39,-4.85 3.4,-7.56l6.01 -13.38c0.32,-0.73 0.33,-0.5 0.61,-1.08l2.87 -6.69c0.84,-2.13 2.92,-5.69 3.45,-7.79 1.31,-5.22 1,-2.76 1.73,-4.46 0.57,-1.34 -0.27,-0.96 1.03,-2.34 1.66,-1.77 2.25,-4.09 3.22,-6.34l5.09 -11.21c0.82,-1.44 1.25,-3.02 1.91,-4.56l8.23 -19.03c0.47,-0.73 0.43,-1.46 0.82,-2.27 0.59,-1.23 0.14,0.26 0.72,-0.97 0.33,-0.7 0.04,-0.63 0.35,-1.33 0.32,-0.72 0.64,-0.59 0.94,-1.3l2.56 -6.15c0.34,-1.05 0.74,-0.76 1.3,-1.79l3.6 -7.92c0.21,-0.54 0.11,-0.52 0.34,-1.06l0.98 -2.11c0.35,-1 0.65,-1.09 0.99,-2.1l5.64 -12.35c0.22,-0.53 0.15,-0.52 0.34,-1.07 0.3,-0.89 0.74,-1.47 1.08,-2.3l12.93 -28.66c0.21,-0.53 0.2,-0.68 0.46,-1.22l3.07 -6.77c0.61,-1.89 1.65,-3.55 2.44,-5.43 1.88,-4.44 4.14,-8.72 5.9,-13.21l3.13 -6.7c0.36,-0.73 0.6,-1.38 0.95,-2.14l7 -15.76c0.46,-0.9 0.43,-1.28 0.9,-2.19 0.27,-0.52 0.27,-0.43 0.52,-1.16 0.64,-1.86 1.66,-3.34 2.55,-5.32l7.95 -17.63c0.21,-0.46 0.24,-0.68 0.45,-1.23 0.41,-1.03 0.14,-0.35 0.48,-0.93l7.78 -17.79c2.03,-0.17 2.11,0.03 4.18,1.45 0.05,0.03 0.11,0.08 0.16,0.12z"/>
  <path class="fil2" d="M3256.59 652.38c7.36,0 14.03,2.99 18.86,7.82 4.84,4.83 7.83,11.5 7.83,18.87 0,7.36 -2.99,14.03 -7.82,18.86 -4.84,4.84 -11.51,7.83 -18.88,7.83 -7.37,0 -14.05,-2.99 -18.87,-7.82 -4.83,-4.84 -7.82,-11.51 -7.82,-18.88 0,-7.37 2.99,-14.05 7.82,-18.87 4.83,-4.83 11.5,-7.82 18.87,-7.82zm-57.53 366.27c0.11,-0.3 37.88,-104.18 147.82,-105.38 109.87,-1.2 151.13,104.16 151.25,104.46l-15.22 6.1c-0.11,-0.27 -37.31,-95.26 -135.91,-94.18 -98.52,1.08 -132.5,94.52 -132.6,94.79l-15.34 -5.78zm79.68 -273.04c0.08,0.08 27.94,28.67 73.68,25.36 46.06,-3.34 68.42,-24.98 68.48,-25.04l4.21 4.48c-0.07,0.06 -23.99,23.19 -72.26,26.7 -48.59,3.53 -78.39,-27.05 -78.47,-27.14l4.36 -4.36zm-179.95 -160.43l19.31 0c7.42,-23.5 20.44,-44.56 37.47,-61.6 27.41,-27.41 65.23,-44.43 106.84,-44.43l84.94 0 0 -36.67c-10.7,-0.56 -20.35,-5.13 -27.48,-12.25l-0.02 -0.02c-7.6,-7.61 -12.31,-18.11 -12.31,-29.69 0,-11.58 4.7,-22.08 12.31,-29.69l0.02 -0.02c7.61,-7.6 18.11,-12.31 29.69,-12.31 11.58,0 22.08,4.7 29.69,12.31l0.02 0.02c7.6,7.61 12.31,18.11 12.31,29.69 0,11.58 -4.7,22.08 -12.31,29.69l-0.02 0.02c-6.52,6.51 -15.15,10.89 -24.76,12.02l0 36.9 84.95 0c41.61,0 79.42,17.02 106.84,44.43 17.04,17.04 30.06,38.1 37.47,61.6l19.31 0c12.02,0 22.96,4.92 30.88,12.85l0.03 0c7.92,7.92 12.85,18.87 12.85,30.91l0 107.9c0,12.02 -4.92,22.95 -12.85,30.88l-0.03 0.03c-7.93,7.93 -18.86,12.85 -30.88,12.85l-17.14 0c-6.87,26.54 -20.8,50.31 -39.65,69.15 -27.41,27.41 -65.23,44.43 -106.84,44.43l-177.03 0c-41.6,0 -79.43,-17.02 -106.84,-44.43 -18.84,-18.85 -32.78,-42.62 -39.65,-69.15l-17.14 0c-12.04,0 -22.99,-4.92 -30.91,-12.85l0 -0.03c-7.93,-7.93 -12.85,-18.86 -12.85,-30.88l0 -107.9c0,-12.04 4.92,-22.99 12.85,-30.91 7.92,-7.93 18.87,-12.85 30.91,-12.85zm15.13 16.44l-15.13 0c-7.51,0 -14.34,3.08 -19.29,8.03 -4.95,4.95 -8.03,11.78 -8.03,19.29l0 107.9c0,7.52 3.07,14.35 8.02,19.31 4.97,4.94 11.8,8.02 19.31,8.02l13.86 0c-0.99,-6.94 -1.5,-14.04 -1.5,-21.24l0 -112.5c0,-9.84 0.95,-19.47 2.77,-28.8zm475.29 162.55l13.86 0c7.52,0 14.35,-3.07 19.31,-8.02 4.95,-4.95 8.02,-11.79 8.02,-19.31l0 -107.9c0,-7.51 -3.08,-14.34 -8.03,-19.29 -4.94,-4.96 -11.78,-8.03 -19.29,-8.03l-15.13 0c1.82,9.33 2.77,18.96 2.77,28.8l0 112.5c0,7.21 -0.51,14.3 -1.5,21.24zm-317.46 -201.22l151.69 0c32.24,0 61.55,13.19 82.79,34.43 21.24,21.24 34.43,50.55 34.43,82.79l0 42.6c0,32.24 -13.19,61.55 -34.43,82.79 -21.24,21.24 -50.55,34.43 -82.79,34.43l-151.69 0c-32.24,0 -61.55,-13.19 -82.79,-34.43 -21.24,-21.24 -34.43,-50.55 -34.43,-82.79l0 -42.6c0,-32.24 13.19,-61.55 34.43,-82.79 21.24,-21.24 50.55,-34.43 82.79,-34.43zm151.69 10.27l-151.69 0c-29.4,0 -56.14,12.04 -75.53,31.42 -19.39,19.38 -31.42,46.12 -31.42,75.53l0 42.6c0,29.4 12.04,56.14 31.42,75.53 19.38,19.38 46.12,31.42 75.53,31.42l151.69 0c29.4,0 56.14,-12.04 75.53,-31.42 19.38,-19.39 31.42,-46.12 31.42,-75.53l0 -42.6c0,-29.4 -12.04,-56.14 -31.42,-75.53 -19.38,-19.38 -46.12,-31.42 -75.53,-31.42zm16.01 -77.62l-177.03 0c-37.07,0 -70.78,15.17 -95.22,39.61 -24.44,24.44 -39.61,58.15 -39.61,95.21l0 112.5c0,37.07 15.17,70.77 39.61,95.21 24.44,24.44 58.15,39.61 95.22,39.61l177.03 0c37.07,0 70.77,-15.17 95.21,-39.61 24.44,-24.44 39.61,-58.15 39.61,-95.21l0 -112.5c0,-37.07 -15.17,-70.78 -39.61,-95.21 -24.44,-24.44 -58.15,-39.61 -95.21,-39.61zm-67.43 -117.53c-5.73,-5.73 -13.67,-9.28 -22.45,-9.28 -8.78,0 -16.72,3.55 -22.45,9.28l-0.02 0.02c-5.73,5.73 -9.28,13.67 -9.28,22.45 0,8.78 3.55,16.72 9.28,22.45l0.02 0.02c5.73,5.73 13.67,9.28 22.45,9.28 8.78,0 16.72,-3.55 22.45,-9.28l0.02 -0.02c5.73,-5.73 9.28,-13.67 9.28,-22.45 0,-8.78 -3.55,-16.72 -9.28,-22.45l-0.02 -0.02zm70.73 274.33c7.36,0 14.03,2.99 18.86,7.82 4.84,4.83 7.83,11.5 7.83,18.87 0,7.36 -2.99,14.03 -7.82,18.86 -4.84,4.84 -11.51,7.83 -18.87,7.83 -7.37,0 -14.05,-2.99 -18.88,-7.82 -4.83,-4.84 -7.82,-11.51 -7.82,-18.88 0,-7.37 2.99,-14.05 7.82,-18.87 4.83,-4.83 11.5,-7.82 18.88,-7.82zm14.52 12.17c-3.71,-3.71 -8.85,-6.01 -14.52,-6.01 -5.67,0 -10.8,2.3 -14.51,6.01 -3.71,3.71 -6.01,8.85 -6.01,14.51 0,5.67 2.3,10.81 6.01,14.52 3.72,3.71 8.85,6.01 14.52,6.01 5.67,0 10.81,-2.3 14.52,-6.01 3.71,-3.71 6.01,-8.85 6.01,-14.52 0,-5.67 -2.3,-10.8 -6.01,-14.52zm-186.16 0c-3.71,-3.71 -8.84,-6.01 -14.52,-6.01 -5.67,0 -10.8,2.3 -14.51,6.01 -3.71,3.71 -6.01,8.85 -6.01,14.51 0,5.67 2.3,10.81 6.01,14.52 3.72,3.71 8.85,6.01 14.52,6.01 5.67,0 10.81,-2.3 14.52,-6.01 3.71,-3.71 6.01,-8.85 6.01,-14.52 0,-5.67 -2.3,-10.8 -6.01,-14.52z"/>
 </g>
</svg>
